<?xml version="1.0" encoding="iso-8859-1"?>
<!-- Generator: Adobe Illustrator 16.0.0, SVG Export Plug-In . SVG Version: 6.00 Build 0)  -->
<!DOCTYPE svg PUBLIC "-//W3C//DTD SVG 1.1//EN" "http://www.w3.org/Graphics/SVG/1.1/DTD/svg11.dtd">
<svg version="1.1" id="Capa_1" xmlns="http://www.w3.org/2000/svg" xmlns:xlink="http://www.w3.org/1999/xlink" x="0px" y="0px"
	 width="66.799px" height="66.799px" viewBox="0 0 66.799 66.799" style="enable-background:new 0 0 66.799 66.799;"
	 xml:space="preserve">
<g>
	<g>
		<path d="M63.539,30.134C63.539,13.515,50.017,0,33.4,0c-0.999,0-2.011,0.049-3.01,0.147c-0.535,0.049-0.925,0.531-0.874,1.061
			c0.049,0.504,0.474,0.878,0.966,0.878c0.033,0,0.064-0.002,0.098-0.004c0.935-0.094,1.883-0.143,2.819-0.143
			c15.544,0,28.19,12.646,28.19,28.188c0,15.467-12.519,28.054-27.952,28.18l5.661-5.659c0.379-0.379,0.379-0.999,0-1.376
			c-0.383-0.379-0.996-0.379-1.377,0l-7.622,7.621l7.622,7.623c0.191,0.188,0.438,0.283,0.687,0.283
			c0.248,0,0.499-0.096,0.687-0.283c0.381-0.378,0.381-0.996,0-1.377l-4.924-4.921C50.539,59.705,63.539,46.422,63.539,30.134z"/>
		<path d="M11.577,47.982c-0.343-0.422-0.956-0.481-1.369-0.14c-0.416,0.343-0.477,0.949-0.138,1.364
			c0.633,0.775,1.312,1.523,2.02,2.235c0.189,0.188,0.44,0.283,0.688,0.283s0.497-0.096,0.687-0.283
			c0.381-0.383,0.381-0.994,0-1.378C12.803,49.408,12.168,48.705,11.577,47.982z"/>
		<path d="M5.341,32.886c-0.089-0.913-0.133-1.838-0.133-2.756c0-0.925,0.044-1.852,0.133-2.766
			c0.051-0.535-0.339-1.008-0.874-1.063c-0.535-0.032-1.009,0.342-1.063,0.874c-0.096,0.974-0.145,1.97-0.145,2.955
			c0,0.981,0.049,1.972,0.143,2.944c0.049,0.502,0.472,0.876,0.967,0.876c0.03,0,0.062,0,0.094-0.005
			C5.002,33.896,5.392,33.422,5.341,32.886z"/>
		<path d="M6.408,38.299c-0.154-0.518-0.697-0.812-1.21-0.652c-0.514,0.155-0.806,0.7-0.65,1.214
			c0.565,1.88,1.325,3.714,2.252,5.452c0.174,0.328,0.511,0.515,0.856,0.515c0.155,0,0.313-0.036,0.458-0.113
			c0.475-0.254,0.654-0.842,0.399-1.312C7.648,41.769,6.939,40.051,6.408,38.299z"/>
		<path d="M24.576,1.308c-1.881,0.577-3.711,1.342-5.443,2.278c-0.471,0.25-0.649,0.843-0.395,1.312
			c0.176,0.329,0.512,0.511,0.857,0.511c0.154,0,0.312-0.038,0.46-0.117c1.616-0.871,3.329-1.586,5.09-2.126
			c0.514-0.154,0.801-0.7,0.645-1.214C25.634,1.439,25.09,1.147,24.576,1.308z"/>
		<path d="M8.123,15.545c-0.475-0.253-1.063-0.073-1.315,0.401c-0.927,1.732-1.687,3.566-2.256,5.447
			c-0.158,0.513,0.134,1.057,0.649,1.215c0.093,0.027,0.189,0.042,0.283,0.042c0.417,0,0.803-0.269,0.93-0.69
			c0.533-1.761,1.242-3.471,2.109-5.099C8.776,16.391,8.597,15.802,8.123,15.545z"/>
		<path d="M14.243,6.867c-1.516,1.254-2.915,2.661-4.161,4.177c-0.341,0.416-0.281,1.027,0.136,1.369
			c0.18,0.147,0.397,0.225,0.615,0.225c0.282,0,0.56-0.125,0.751-0.356c1.166-1.422,2.476-2.737,3.894-3.907
			c0.414-0.341,0.474-0.956,0.131-1.369C15.271,6.584,14.658,6.526,14.243,6.867z"/>
	</g>
</g>
<g>
</g>
<g>
</g>
<g>
</g>
<g>
</g>
<g>
</g>
<g>
</g>
<g>
</g>
<g>
</g>
<g>
</g>
<g>
</g>
<g>
</g>
<g>
</g>
<g>
</g>
<g>
</g>
<g>
</g>
</svg>
