<?xml version="1.0" encoding="utf-8"?>
<!-- Generator: Adobe Illustrator 19.0.0, SVG Export Plug-In . SVG Version: 6.00 Build 0)  -->
<svg version="1.1" id="Layer_1" xmlns="http://www.w3.org/2000/svg" xmlns:xlink="http://www.w3.org/1999/xlink" x="0px" y="0px"
	 viewBox="-100 224 393.8 393.8" style="enable-background:new -100 224 393.8 393.8;" xml:space="preserve">
<style type="text/css">
	.st0{fill:#C09A6B;}
	.st1{fill:#CCD0D2;}
	.st2{fill:#E4E7E7;}
	.st3{fill:#36434F;}
	.st4{fill:#465765;}
	.st5{fill:#B7BBBD;}
	.st6{fill:#A9D5BB;}
	.st7{fill:#D8FFFF;}
	.st8{fill:#FFED8F;}
	.st9{fill:#FFCD69;}
	.st10{fill:#727C7C;}
	.st11{fill:#DDB961;}
	.st12{fill:#CEA455;}
	.st13{fill:#C5EAD4;}
</style>
<g>
	<rect x="-99.4" y="240.7" class="st0" width="411.9" height="371.6"/>
	<g>
		<g>
			<path class="st1" d="M61.5,525h95.9v45.1H61.5V525z"/>
			<path class="st2" d="M50.3,570.1h118.2c6.1,0,11.2,5,11.2,11.2c0,6.1-5,11.2-11.2,11.2H50.3c-6.1,0-11.2-5-11.2-11.2
				C39.1,575.1,44.2,570.1,50.3,570.1z"/>
			<path class="st3" d="M-56.7,260.5h326.5c9.4,0,16.9,7.6,16.9,16.9v227.4c0,9.4-360.4,9.4-360.4,0V277.4
				C-73.7,268-66.1,260.5-56.7,260.5z"/>
			<path class="st4" d="M-56.7,277.4h326.5v191.4H-56.7V277.4z"/>
			<path class="st5" d="M61.5,525h95.9V542H61.5V525z"/>
			<path class="st2" d="M-73.7,508.5c0,9.4,7.6,16.9,16.9,16.9h326.5c9.4,0,16.9-7.6,16.9-16.9v-22.3H-73.7V508.5z"/>
		</g>
		<g>
			<g>
				<path class="st2" d="M-31.8,304.9h68.9c2.8,0,5,1.6,5,3.8v55c0,2.1-2.2,3.8-5,3.8h-68.9c-2.8,0-5-1.6-5-3.8v-55.3
					C-36.8,306.6-34.6,304.9-31.8,304.9z"/>
				<g>
					<path class="st6" d="M30.5,361.6c0,1.3-1.1,2.4-2.4,2.4h-50.8c-1.3,0-2.4-1.1-2.4-2.4v-10.9h55.6V361.6z"/>
					<path class="st7" d="M11.2,356.5H-13c-0.5,0-0.9-0.4-0.9-0.9s0.4-0.9,0.9-0.9h24.2c0.5,0,0.9,0.4,0.9,0.9
						S11.7,356.5,11.2,356.5z M18.4,354.6H16c-0.5,0-0.9,0.4-0.9,0.9s0.4,0.9,0.9,0.9h2.4c0.5,0,0.9-0.4,0.9-0.9
						S18.9,354.6,18.4,354.6z M13,358.9H-1.5c-0.5,0-0.9,0.4-0.9,0.9s0.4,0.9,0.9,0.9H13c0.5,0,0.9-0.4,0.9-0.9S13.5,358.9,13,358.9
						z M-5.1,358.9h-2.4c-0.5,0-0.9,0.4-0.9,0.9s0.4,0.9,0.9,0.9h2.4c0.5,0,0.9-0.4,0.9-0.9S-4.6,358.9-5.1,358.9z"/>
					<path class="st6" d="M-14.2,319.3h-8.5c-1.3,0-2.4-1.1-2.4-2.4l0,0c0-1.3,1.1-2.4,2.4-2.4h8.5c1.3,0,2.4,1.1,2.4,2.4l0,0
						C-11.8,318.2-12.9,319.3-14.2,319.3z"/>
					<path class="st8" d="M-25.1,334.4c0-11.7,9.5-21.1,21.1-21.1s21.1,9.5,21.1,21.1c0,6.6-3,12.4-7.7,16.3h-26.9
						C-22.1,346.8-25.1,341-25.1,334.4z"/>
					<path class="st9" d="M7.5,334.4c0,6.3-5.1,11.5-11.5,11.5s-11.5-5.1-11.5-11.5s5.1-11.5,11.5-11.5S7.5,328.1,7.5,334.4z"/>
					<path class="st10" d="M21.7,309.3c0,0.5-0.4,0.9-0.9,0.9c-1.2,0-2.1,0.9-2.1,2.1c0,0.5-0.4,0.9-0.9,0.9c-0.5,0-0.9-0.4-0.9-0.9
						c0-1.2-0.9-2.1-2.1-2.1c-0.5,0-0.9-0.4-0.9-0.9s0.4-0.9,0.9-0.9c1.2,0,2.3,0.6,3,1.4c0.7-0.9,1.8-1.4,3-1.4
						C21.3,308.4,21.7,308.8,21.7,309.3z"/>
					<path class="st6" d="M30.5,325.3L30.5,325.3c0,1.3-1.1,2.4-2.4,2.4H14.8c-1.3,0-2.4-1.1-2.4-2.4H7.5c-1.3,0-2.4-1.1-2.4-2.4
						l0,0c0-1.3,1.1-2.4,2.4-2.4H16c1.3,0,2.4,1.1,2.4,2.4l0,0h9.7C29.4,322.9,30.5,324,30.5,325.3z"/>
					<path class="st11" d="M19.8,336.2h3.4c4,0,7.3,3.2,7.3,7.3l0,0v7.3h-35l1.2-3.6c0.7-2.2,2.7-3.6,5-3.6h8.1c2.3,0,4.3-1.5,5-3.6
						l0,0C15.5,337.7,17.5,336.2,19.8,336.2z"/>
					<path class="st12" d="M5.9,350.7H-4.5l1.2-3.6c0.7-2.2,2.7-3.6,5-3.6h6.9h1.2c1.2,0,2.2-0.4,3.1-1
						C11.3,345.8,8.9,348.6,5.9,350.7z"/>
					<path class="st13" d="M30.5,350.7c0,0.5-0.4,0.9-0.9,0.9h-53.8c-0.5,0-0.9-0.4-0.9-0.9s0.4-0.9,0.9-0.9h53.8
						C30.1,349.8,30.5,350.2,30.5,350.7z"/>
				</g>
			</g>
			<g>
				<path class="st2" d="M72.1,304.9H141c2.8,0,5,1.6,5,3.8v55c0,2.1-2.2,3.8-5,3.8H72.1c-2.8,0-5-1.6-5-3.8v-55.3
					C67,306.6,69.2,304.9,72.1,304.9z"/>
				<g>
					<path class="st6" d="M134.3,361.6c0,1.3-1.1,2.4-2.4,2.4H81.2c-1.3,0-2.4-1.1-2.4-2.4v-10.9h55.6V361.6z"/>
					<path class="st7" d="M115,356.5H90.8c-0.5,0-0.9-0.4-0.9-0.9s0.4-0.9,0.9-0.9H115c0.5,0,0.9,0.4,0.9,0.9S115.5,356.5,115,356.5
						z M122.2,354.6h-2.4c-0.5,0-0.9,0.4-0.9,0.9s0.4,0.9,0.9,0.9h2.4c0.5,0,0.9-0.4,0.9-0.9S122.7,354.6,122.2,354.6z M116.8,358.9
						h-14.5c-0.5,0-0.9,0.4-0.9,0.9s0.4,0.9,0.9,0.9h14.5c0.5,0,0.9-0.4,0.9-0.9S117.3,358.9,116.8,358.9z M98.7,358.9h-2.4
						c-0.5,0-0.9,0.4-0.9,0.9s0.4,0.9,0.9,0.9h2.4c0.5,0,0.9-0.4,0.9-0.9S99.2,358.9,98.7,358.9z"/>
					<path class="st6" d="M89.6,319.3h-8.5c-1.3,0-2.4-1.1-2.4-2.4l0,0c0-1.3,1.1-2.4,2.4-2.4h8.5c1.3,0,2.4,1.1,2.4,2.4l0,0
						C92,318.2,90.9,319.3,89.6,319.3z"/>
					<path class="st8" d="M78.7,334.4c0-11.7,9.5-21.1,21.1-21.1s21.1,9.5,21.1,21.1c0,6.6-3,12.4-7.7,16.3H86.4
						C81.7,346.8,78.7,341,78.7,334.4z"/>
					<path class="st9" d="M111.4,334.4c0,6.3-5.1,11.5-11.5,11.5s-11.5-5.1-11.5-11.5s5.1-11.5,11.5-11.5
						C106.2,322.9,111.4,328.1,111.4,334.4z"/>
					<path class="st10" d="M125.6,309.3c0,0.5-0.4,0.9-0.9,0.9c-1.2,0-2.1,0.9-2.1,2.1c0,0.5-0.4,0.9-0.9,0.9
						c-0.5,0-0.9-0.4-0.9-0.9c0-1.2-0.9-2.1-2.1-2.1c-0.5,0-0.9-0.4-0.9-0.9s0.4-0.9,0.9-0.9c1.2,0,2.3,0.6,3,1.4
						c0.7-0.9,1.8-1.4,3-1.4C125.2,308.4,125.6,308.8,125.6,309.3z"/>
					<path class="st6" d="M134.3,325.3L134.3,325.3c0,1.3-1.1,2.4-2.4,2.4h-13.3c-1.3,0-2.4-1.1-2.4-2.4h-4.8
						c-1.3,0-2.4-1.1-2.4-2.4l0,0c0-1.3,1.1-2.4,2.4-2.4h8.5c1.3,0,2.4,1.1,2.4,2.4l0,0h9.7C133.2,322.9,134.3,324,134.3,325.3z"/>
					<path class="st11" d="M123.6,336.2h3.4c4,0,7.3,3.2,7.3,7.3l0,0v7.3h-35l1.2-3.6c0.7-2.2,2.7-3.6,5-3.6h8.1
						c2.3,0,4.3-1.5,5-3.6l0,0C119.3,337.7,121.4,336.2,123.6,336.2z"/>
					<path class="st12" d="M109.7,350.7H99.3l1.2-3.6c0.7-2.2,2.7-3.6,5-3.6h6.9h1.2c1.2,0,2.2-0.4,3.1-1
						C115.2,345.8,112.7,348.6,109.7,350.7z"/>
					<path class="st13" d="M134.3,350.7c0,0.5-0.4,0.9-0.9,0.9H79.6c-0.5,0-0.9-0.4-0.9-0.9s0.4-0.9,0.9-0.9h53.8
						C133.9,349.8,134.3,350.2,134.3,350.7z"/>
				</g>
			</g>
			<g>
				<path class="st2" d="M175.9,304.9h68.9c2.8,0,5,1.6,5,3.8v55c0,2.1-2.2,3.8-5,3.8h-68.9c-2.8,0-5-1.6-5-3.8v-55.3
					C170.8,306.6,173,304.9,175.9,304.9z"/>
				<g>
					<path class="st6" d="M238.1,361.6c0,1.3-1.1,2.4-2.4,2.4H185c-1.3,0-2.4-1.1-2.4-2.4v-10.9h55.6V361.6z"/>
					<path class="st7" d="M218.8,356.5h-24.2c-0.5,0-0.9-0.4-0.9-0.9s0.4-0.9,0.9-0.9h24.2c0.5,0,0.9,0.4,0.9,0.9
						S219.3,356.5,218.8,356.5z M226.1,354.6h-2.4c-0.5,0-0.9,0.4-0.9,0.9s0.4,0.9,0.9,0.9h2.4c0.5,0,0.9-0.4,0.9-0.9
						S226.6,354.6,226.1,354.6z M220.6,358.9h-14.5c-0.5,0-0.9,0.4-0.9,0.9s0.4,0.9,0.9,0.9h14.5c0.5,0,0.9-0.4,0.9-0.9
						S221.1,358.9,220.6,358.9z M202.5,358.9h-2.4c-0.5,0-0.9,0.4-0.9,0.9s0.4,0.9,0.9,0.9h2.4c0.5,0,0.9-0.4,0.9-0.9
						S203,358.9,202.5,358.9z"/>
					<path class="st6" d="M193.4,319.3H185c-1.3,0-2.4-1.1-2.4-2.4l0,0c0-1.3,1.1-2.4,2.4-2.4h8.5c1.3,0,2.4,1.1,2.4,2.4l0,0
						C195.8,318.2,194.8,319.3,193.4,319.3z"/>
					<path class="st8" d="M182.6,334.4c0-11.7,9.5-21.1,21.1-21.1c11.7,0,21.1,9.5,21.1,21.1c0,6.6-3,12.4-7.7,16.3h-26.9
						C185.5,346.8,182.6,341,182.6,334.4z"/>
					<path class="st9" d="M215.2,334.4c0,6.3-5.1,11.5-11.5,11.5c-6.3,0-11.5-5.1-11.5-11.5s5.1-11.5,11.5-11.5
						C210,322.9,215.2,328.1,215.2,334.4z"/>
					<path class="st10" d="M229.4,309.3c0,0.5-0.4,0.9-0.9,0.9c-1.2,0-2.1,0.9-2.1,2.1c0,0.5-0.4,0.9-0.9,0.9
						c-0.5,0-0.9-0.4-0.9-0.9c0-1.2-0.9-2.1-2.1-2.1c-0.5,0-0.9-0.4-0.9-0.9s0.4-0.9,0.9-0.9c1.2,0,2.3,0.6,3,1.4
						c0.7-0.9,1.8-1.4,3-1.4C229,308.4,229.4,308.8,229.4,309.3z"/>
					<path class="st6" d="M238.1,325.3L238.1,325.3c0,1.3-1.1,2.4-2.4,2.4h-13.3c-1.3,0-2.4-1.1-2.4-2.4h-4.8
						c-1.3,0-2.4-1.1-2.4-2.4l0,0c0-1.3,1.1-2.4,2.4-2.4h8.5c1.3,0,2.4,1.1,2.4,2.4l0,0h9.7C237.1,322.9,238.1,324,238.1,325.3z"/>
					<path class="st11" d="M227.5,336.2h3.4c4,0,7.3,3.2,7.3,7.3l0,0v7.3h-35l1.2-3.6c0.7-2.2,2.7-3.6,5-3.6h8.1
						c2.3,0,4.3-1.5,5-3.6l0,0C223.2,337.7,225.2,336.2,227.5,336.2z"/>
					<path class="st12" d="M213.5,350.7h-10.4l1.2-3.6c0.7-2.2,2.7-3.6,5-3.6h6.9h1.2c1.2,0,2.2-0.4,3.1-1
						C219,345.8,216.5,348.6,213.5,350.7z"/>
					<path class="st13" d="M238.1,350.7c0,0.5-0.4,0.9-0.9,0.9h-53.8c-0.5,0-0.9-0.4-0.9-0.9s0.4-0.9,0.9-0.9h53.8
						C237.7,349.8,238.1,350.2,238.1,350.7z"/>
				</g>
			</g>
			<g>
				<path class="st2" d="M-31.8,385.3h68.9c2.8,0,5,1.6,5,3.8v55c0,2.1-2.2,3.8-5,3.8h-68.9c-2.8,0-5-1.6-5-3.8v-55.3
					C-36.8,386.9-34.6,385.3-31.8,385.3z"/>
				<g>
					<path class="st6" d="M30.5,441.9c0,1.3-1.1,2.4-2.4,2.4h-50.8c-1.3,0-2.4-1.1-2.4-2.4v-10.9h55.6V441.9z"/>
					<path class="st7" d="M11.2,436.8H-13c-0.5,0-0.9-0.4-0.9-0.9s0.4-0.9,0.9-0.9h24.2c0.5,0,0.9,0.4,0.9,0.9
						S11.7,436.8,11.2,436.8z M18.4,435H16c-0.5,0-0.9,0.4-0.9,0.9s0.4,0.9,0.9,0.9h2.4c0.5,0,0.9-0.4,0.9-0.9S18.9,435,18.4,435z
						 M13,439.2H-1.5c-0.5,0-0.9,0.4-0.9,0.9S-2,441-1.5,441H13c0.5,0,0.9-0.4,0.9-0.9S13.5,439.2,13,439.2z M-5.1,439.2h-2.4
						c-0.5,0-0.9,0.4-0.9,0.9s0.4,0.9,0.9,0.9h2.4c0.5,0,0.9-0.4,0.9-0.9S-4.6,439.2-5.1,439.2z"/>
					<path class="st6" d="M-14.2,399.7h-8.5c-1.3,0-2.4-1.1-2.4-2.4l0,0c0-1.3,1.1-2.4,2.4-2.4h8.5c1.3,0,2.4,1.1,2.4,2.4l0,0
						C-11.8,398.6-12.9,399.7-14.2,399.7z"/>
					<path class="st8" d="M-25.1,414.8c0-11.7,9.5-21.1,21.1-21.1s21.1,9.5,21.1,21.1c0,6.6-3,12.4-7.7,16.3h-26.9
						C-22.1,427.2-25.1,421.3-25.1,414.8z"/>
					<path class="st9" d="M7.5,414.8c0,6.3-5.1,11.5-11.5,11.5s-11.5-5.1-11.5-11.5c0-6.3,5.1-11.5,11.5-11.5S7.5,408.4,7.5,414.8z"
						/>
					<path class="st10" d="M21.7,389.7c0,0.5-0.4,0.9-0.9,0.9c-1.2,0-2.1,0.9-2.1,2.1c0,0.5-0.4,0.9-0.9,0.9c-0.5,0-0.9-0.4-0.9-0.9
						c0-1.2-0.9-2.1-2.1-2.1c-0.5,0-0.9-0.4-0.9-0.9s0.4-0.9,0.9-0.9c1.2,0,2.3,0.6,3,1.4c0.7-0.9,1.8-1.4,3-1.4
						C21.3,388.8,21.7,389.2,21.7,389.7z"/>
					<path class="st6" d="M30.5,405.7L30.5,405.7c0,1.3-1.1,2.4-2.4,2.4H14.8c-1.3,0-2.4-1.1-2.4-2.4H7.5c-1.3,0-2.4-1.1-2.4-2.4
						l0,0c0-1.3,1.1-2.4,2.4-2.4H16c1.3,0,2.4,1.1,2.4,2.4l0,0h9.7C29.4,403.3,30.5,404.4,30.5,405.7z"/>
					<path class="st11" d="M19.8,416.6h3.4c4,0,7.3,3.2,7.3,7.3l0,0v7.3h-35l1.2-3.6c0.7-2.2,2.7-3.6,5-3.6h8.1c2.3,0,4.3-1.5,5-3.6
						l0,0C15.5,418,17.5,416.6,19.8,416.6z"/>
					<path class="st12" d="M5.9,431.1H-4.5l1.2-3.6c0.7-2.2,2.7-3.6,5-3.6h6.9h1.2c1.2,0,2.2-0.4,3.1-1
						C11.3,426.1,8.9,429,5.9,431.1z"/>
					<path class="st13" d="M30.5,431.1c0,0.5-0.4,0.9-0.9,0.9h-53.8c-0.5,0-0.9-0.4-0.9-0.9s0.4-0.9,0.9-0.9h53.8
						C30.1,430.2,30.5,430.6,30.5,431.1z"/>
				</g>
			</g>
			<g>
				<path class="st2" d="M72.1,385.3H141c2.8,0,5,1.6,5,3.8v55c0,2.1-2.2,3.8-5,3.8H72.1c-2.8,0-5-1.6-5-3.8v-55.3
					C67,386.9,69.2,385.3,72.1,385.3z"/>
				<g>
					<path class="st6" d="M134.3,441.9c0,1.3-1.1,2.4-2.4,2.4H81.2c-1.3,0-2.4-1.1-2.4-2.4v-10.9h55.6V441.9z"/>
					<path class="st7" d="M115,436.8H90.8c-0.5,0-0.9-0.4-0.9-0.9s0.4-0.9,0.9-0.9H115c0.5,0,0.9,0.4,0.9,0.9S115.5,436.8,115,436.8
						z M122.2,435h-2.4c-0.5,0-0.9,0.4-0.9,0.9s0.4,0.9,0.9,0.9h2.4c0.5,0,0.9-0.4,0.9-0.9S122.7,435,122.2,435z M116.8,439.2h-14.5
						c-0.5,0-0.9,0.4-0.9,0.9s0.4,0.9,0.9,0.9h14.5c0.5,0,0.9-0.4,0.9-0.9S117.3,439.2,116.8,439.2z M98.7,439.2h-2.4
						c-0.5,0-0.9,0.4-0.9,0.9s0.4,0.9,0.9,0.9h2.4c0.5,0,0.9-0.4,0.9-0.9S99.2,439.2,98.7,439.2z"/>
					<path class="st6" d="M89.6,399.7h-8.5c-1.3,0-2.4-1.1-2.4-2.4l0,0c0-1.3,1.1-2.4,2.4-2.4h8.5c1.3,0,2.4,1.1,2.4,2.4l0,0
						C92,398.6,90.9,399.7,89.6,399.7z"/>
					<path class="st8" d="M78.7,414.8c0-11.7,9.5-21.1,21.1-21.1s21.1,9.5,21.1,21.1c0,6.6-3,12.4-7.7,16.3H86.4
						C81.7,427.2,78.7,421.3,78.7,414.8z"/>
					<path class="st9" d="M111.4,414.8c0,6.3-5.1,11.5-11.5,11.5s-11.5-5.1-11.5-11.5c0-6.3,5.1-11.5,11.5-11.5
						C106.2,403.3,111.4,408.4,111.4,414.8z"/>
					<path class="st10" d="M125.6,389.7c0,0.5-0.4,0.9-0.9,0.9c-1.2,0-2.1,0.9-2.1,2.1c0,0.5-0.4,0.9-0.9,0.9
						c-0.5,0-0.9-0.4-0.9-0.9c0-1.2-0.9-2.1-2.1-2.1c-0.5,0-0.9-0.4-0.9-0.9s0.4-0.9,0.9-0.9c1.2,0,2.3,0.6,3,1.4
						c0.7-0.9,1.8-1.4,3-1.4C125.2,388.8,125.6,389.2,125.6,389.7z"/>
					<path class="st6" d="M134.3,405.7L134.3,405.7c0,1.3-1.1,2.4-2.4,2.4h-13.3c-1.3,0-2.4-1.1-2.4-2.4h-4.8
						c-1.3,0-2.4-1.1-2.4-2.4l0,0c0-1.3,1.1-2.4,2.4-2.4h8.5c1.3,0,2.4,1.1,2.4,2.4l0,0h9.7C133.2,403.3,134.3,404.4,134.3,405.7z"
						/>
					<path class="st11" d="M123.6,416.6h3.4c4,0,7.3,3.2,7.3,7.3l0,0v7.3h-35l1.2-3.6c0.7-2.2,2.7-3.6,5-3.6h8.1
						c2.3,0,4.3-1.5,5-3.6l0,0C119.3,418,121.4,416.6,123.6,416.6z"/>
					<path class="st12" d="M109.7,431.1H99.3l1.2-3.6c0.7-2.2,2.7-3.6,5-3.6h6.9h1.2c1.2,0,2.2-0.4,3.1-1
						C115.2,426.1,112.7,429,109.7,431.1z"/>
					<path class="st13" d="M134.3,431.1c0,0.5-0.4,0.9-0.9,0.9H79.6c-0.5,0-0.9-0.4-0.9-0.9s0.4-0.9,0.9-0.9h53.8
						C133.9,430.2,134.3,430.6,134.3,431.1z"/>
				</g>
			</g>
			<g>
				<path class="st2" d="M175.9,385.3h68.9c2.8,0,5,1.6,5,3.8v55c0,2.1-2.2,3.8-5,3.8h-68.9c-2.8,0-5-1.6-5-3.8v-55.3
					C170.8,386.9,173,385.3,175.9,385.3z"/>
				<g>
					<path class="st6" d="M238.1,441.9c0,1.3-1.1,2.4-2.4,2.4H185c-1.3,0-2.4-1.1-2.4-2.4v-10.9h55.6V441.9z"/>
					<path class="st7" d="M218.8,436.8h-24.2c-0.5,0-0.9-0.4-0.9-0.9s0.4-0.9,0.9-0.9h24.2c0.5,0,0.9,0.4,0.9,0.9
						S219.3,436.8,218.8,436.8z M226.1,435h-2.4c-0.5,0-0.9,0.4-0.9,0.9s0.4,0.9,0.9,0.9h2.4c0.5,0,0.9-0.4,0.9-0.9
						S226.6,435,226.1,435z M220.6,439.2h-14.5c-0.5,0-0.9,0.4-0.9,0.9s0.4,0.9,0.9,0.9h14.5c0.5,0,0.9-0.4,0.9-0.9
						S221.1,439.2,220.6,439.2z M202.5,439.2h-2.4c-0.5,0-0.9,0.4-0.9,0.9s0.4,0.9,0.9,0.9h2.4c0.5,0,0.9-0.4,0.9-0.9
						S203,439.2,202.5,439.2z"/>
					<path class="st6" d="M193.4,399.7H185c-1.3,0-2.4-1.1-2.4-2.4l0,0c0-1.3,1.1-2.4,2.4-2.4h8.5c1.3,0,2.4,1.1,2.4,2.4l0,0
						C195.8,398.6,194.8,399.7,193.4,399.7z"/>
					<path class="st8" d="M182.6,414.8c0-11.7,9.5-21.1,21.1-21.1c11.7,0,21.1,9.5,21.1,21.1c0,6.6-3,12.4-7.7,16.3h-26.9
						C185.5,427.2,182.6,421.3,182.6,414.8z"/>
					<path class="st9" d="M215.2,414.8c0,6.3-5.1,11.5-11.5,11.5c-6.3,0-11.5-5.1-11.5-11.5c0-6.3,5.1-11.5,11.5-11.5
						C210,403.3,215.2,408.4,215.2,414.8z"/>
					<path class="st10" d="M229.4,389.7c0,0.5-0.4,0.9-0.9,0.9c-1.2,0-2.1,0.9-2.1,2.1c0,0.5-0.4,0.9-0.9,0.9
						c-0.5,0-0.9-0.4-0.9-0.9c0-1.2-0.9-2.1-2.1-2.1c-0.5,0-0.9-0.4-0.9-0.9s0.4-0.9,0.9-0.9c1.2,0,2.3,0.6,3,1.4
						c0.7-0.9,1.8-1.4,3-1.4C229,388.8,229.4,389.2,229.4,389.7z"/>
					<path class="st6" d="M238.1,405.7L238.1,405.7c0,1.3-1.1,2.4-2.4,2.4h-13.3c-1.3,0-2.4-1.1-2.4-2.4h-4.8
						c-1.3,0-2.4-1.1-2.4-2.4l0,0c0-1.3,1.1-2.4,2.4-2.4h8.5c1.3,0,2.4,1.1,2.4,2.4l0,0h9.7C237.1,403.3,238.1,404.4,238.1,405.7z"
						/>
					<path class="st11" d="M227.5,416.6h3.4c4,0,7.3,3.2,7.3,7.3l0,0v7.3h-35l1.2-3.6c0.7-2.2,2.7-3.6,5-3.6h8.1
						c2.3,0,4.3-1.5,5-3.6l0,0C223.2,418,225.2,416.6,227.5,416.6z"/>
					<path class="st12" d="M213.5,431.1h-10.4l1.2-3.6c0.7-2.2,2.7-3.6,5-3.6h6.9h1.2c1.2,0,2.2-0.4,3.1-1
						C219,426.1,216.5,429,213.5,431.1z"/>
					<path class="st13" d="M238.1,431.1c0,0.5-0.4,0.9-0.9,0.9h-53.8c-0.5,0-0.9-0.4-0.9-0.9s0.4-0.9,0.9-0.9h53.8
						C237.7,430.2,238.1,430.6,238.1,431.1z"/>
				</g>
			</g>
		</g>
	</g>
</g>
</svg>
