<?xml version="1.0" encoding="utf-8"?>
<!-- Generator: Adobe Illustrator 19.0.0, SVG Export Plug-In . SVG Version: 6.00 Build 0)  -->
<svg version="1.1" id="Layer_1" xmlns="http://www.w3.org/2000/svg" xmlns:xlink="http://www.w3.org/1999/xlink" x="0px" y="0px"
	 viewBox="-41 164.9 512 512" style="enable-background:new -41 164.9 512 512;" xml:space="preserve">
<style type="text/css">
	.st0{fill:#EAFFFF;}
	.st1{fill:#A9D5BB;}
	.st2{fill:#D8FFFF;}
	.st3{fill:#FFED8F;}
	.st4{fill:#FFCD69;}
	.st5{fill:#727C7C;}
	.st6{fill:#DDB961;}
	.st7{fill:#CEA455;}
	.st8{fill:#C5EAD4;}
</style>
<path class="st0" d="M404.2,654.6H25.8c-24.6,0-44.5-19.9-44.5-44.5V231.7c0-24.6,19.9-44.5,44.5-44.5h378.4
	c24.6,0,44.5,19.9,44.5,44.5v378.4C448.7,634.7,428.8,654.6,404.2,654.6z"/>
<path class="st1" d="M471,654.6c0,12.3-10,22.3-22.3,22.3H-18.7c-12.3,0-22.3-10-22.3-22.3V554.5h512V654.6z"/>
<path class="st2" d="M292.9,607.3H70.3c-4.6,0-8.3-3.7-8.3-8.3s3.7-8.3,8.3-8.3h222.6c4.6,0,8.3,3.7,8.3,8.3
	S297.5,607.3,292.9,607.3z M359.7,590.6h-22.3c-4.6,0-8.3,3.7-8.3,8.3s3.7,8.3,8.3,8.3h22.3c4.6,0,8.3-3.7,8.3-8.3
	S364.3,590.6,359.7,590.6z M309.6,629.6H176c-4.6,0-8.3,3.7-8.3,8.3s3.7,8.3,8.3,8.3h133.6c4.6,0,8.3-3.7,8.3-8.3
	S314.2,629.6,309.6,629.6z M142.7,629.6h-22.3c-4.6,0-8.3,3.7-8.3,8.3s3.7,8.3,8.3,8.3h22.3c4.6,0,8.3-3.7,8.3-8.3
	S147.3,629.6,142.7,629.6z"/>
<path class="st1" d="M59.2,265.1h-77.9c-12.3,0-22.3-10-22.3-22.3l0,0c0-12.3,10-22.3,22.3-22.3h77.9c12.3,0,22.3,10,22.3,22.3l0,0
	C81.4,255.1,71.5,265.1,59.2,265.1z"/>
<path class="st3" d="M-41,404.2c0-107.6,87.2-194.8,194.8-194.8s194.8,87.2,194.8,194.8c0,60.5-27.6,114.5-70.9,150.3H29.9
	C-13.4,518.7-41,464.7-41,404.2z"/>
<path class="st4" d="M259.5,404.2c0,58.4-47.3,105.7-105.7,105.7S48,462.6,48,404.2s47.3-105.7,105.7-105.7S259.5,345.8,259.5,404.2
	z"/>
<path class="st5" d="M390.3,173.2c0,4.6-3.7,8.3-8.3,8.3c-10.7,0-19.5,8.7-19.5,19.5c0,4.6-3.7,8.3-8.3,8.3c-4.6,0-8.3-3.7-8.3-8.3
	c0-10.7-8.7-19.5-19.5-19.5c-4.6,0-8.3-3.7-8.3-8.3c0-4.6,3.7-8.3,8.3-8.3c11.2,0,21.2,5.1,27.8,13.1c6.6-8,16.7-13.1,27.8-13.1
	C386.6,164.9,390.3,168.6,390.3,173.2z"/>
<path class="st1" d="M471,320.7L471,320.7c0,12.3-10,22.3-22.3,22.3H326.3c-12.3,0-22.3-10-22.3-22.3h-44.5
	c-12.3,0-22.3-10-22.3-22.3l0,0c0-12.3,10-22.3,22.3-22.3h77.9c12.3,0,22.3,10,22.3,22.3l0,0h89C461,298.5,471,308.4,471,320.7z"/>
<path class="st6" d="M372.6,420.9h31.6c36.9,0,66.8,29.9,66.8,66.8l0,0v66.8H148.2l11.1-33.4c6.6-19.9,25.3-33.4,46.3-33.4H280
	c21,0,39.7-13.5,46.3-33.4l0,0C333,434.3,351.6,420.9,372.6,420.9z"/>
<path class="st7" d="M244.4,554.5h-96.2l11.1-33.4c6.6-19.9,25.3-33.4,46.3-33.4h63.2H280c10.6,0,20.6-3.4,28.7-9.4
	C294.4,509.1,272.1,535.4,244.4,554.5z"/>
<path class="st8" d="M471,554.5c0,4.6-3.7,8.3-8.3,8.3H-32.7c-4.6,0-8.3-3.7-8.3-8.3s3.7-8.3,8.3-8.3h495.3
	C467.3,546.1,471,549.8,471,554.5z"/>
</svg>
