<?xml version="1.0" encoding="utf-8"?>
<!-- Generator: Adobe Illustrator 19.0.0, SVG Export Plug-In . SVG Version: 6.00 Build 0)  -->
<svg version="1.1" id="Layer_1" xmlns="http://www.w3.org/2000/svg" xmlns:xlink="http://www.w3.org/1999/xlink" x="0px" y="0px"
	 viewBox="-45 168.9 505 505" style="enable-background:new -45 168.9 505 505;" xml:space="preserve">
<style type="text/css">
	.st0{fill:#FFD05B;}
	.st1{fill:#FFFFFF;}
	.st2{fill:#2B3B4E;}
	.st3{fill:#324A5E;}
	.st4{fill:#ACB3BA;}
</style>
<g>
	<rect x="-45" y="168.9" class="st0" width="505" height="505"/>
	<path class="st1" d="M332.5,362.2h-3.1c0.1-1.4,0.2-2.9,0.2-4.3c0-38.5-31.2-69.7-69.7-69.7c-15.1,0-29.1,4.9-40.5,13.1
		c-14.3-28.9-44.1-48.9-78.5-48.9c-48.4,0-87.7,39.2-87.7,87.7c0,9.7,1.7,19.1,4.6,27.9c-19.7,9.3-33.4,29.3-33.4,52.6l0,0
		c0,32.2,26.1,58.2,58.2,58.2h249.9c32.2,0,58.2-26.1,58.2-58.2l0,0C390.7,388.3,364.6,362.2,332.5,362.2z"/>
	<rect x="126.9" y="443.2" class="st2" width="161.1" height="113.4"/>
	<g>
		<path class="st3" d="M295.7,411.1H119.3c-3,0-5.4,2.4-5.4,5.4V459c0,3,2.4,5.4,5.4,5.4h176.3c3,0,5.4-2.4,5.4-5.4v-42.5
			C301.1,413.6,298.7,411.1,295.7,411.1z"/>
		<path class="st3" d="M295.7,474.1H119.3c-3,0-5.4,2.4-5.4,5.4V522c0,3,2.4,5.4,5.4,5.4h176.3c3,0,5.4-2.4,5.4-5.4v-42.5
			C301.1,476.6,298.7,474.1,295.7,474.1z"/>
		<path class="st3" d="M295.7,537.1H119.3c-3,0-5.4,2.4-5.4,5.4V585c0,3,2.4,5.4,5.4,5.4h176.3c3,0,5.4-2.4,5.4-5.4v-42.5
			C301.1,539.5,298.7,537.1,295.7,537.1z"/>
	</g>
	<g>
		<circle class="st0" cx="269" cy="436" r="6.7"/>
		<circle class="st0" cx="269" cy="500.8" r="6.7"/>
		<circle class="st0" cx="269" cy="565.6" r="6.7"/>
	</g>
	<g>
		<path class="st4" d="M133.2,488c-1.8,0-3.2,1.4-3.2,3.2v19.2c0,1.8,1.4,3.2,3.2,3.2s3.2-1.4,3.2-3.2v-19.2
			C136.4,489.5,135,488,133.2,488z"/>
		<path class="st4" d="M147.6,488c-1.8,0-3.2,1.4-3.2,3.2v19.2c0,1.8,1.4,3.2,3.2,3.2s3.2-1.4,3.2-3.2v-19.2
			C150.8,489.5,149.3,488,147.6,488z"/>
		<path class="st4" d="M161.9,488c-1.8,0-3.2,1.4-3.2,3.2v19.2c0,1.8,1.4,3.2,3.2,3.2s3.2-1.4,3.2-3.2v-19.2
			C165.1,489.5,163.7,488,161.9,488z"/>
		<path class="st4" d="M176.3,488c-1.8,0-3.2,1.4-3.2,3.2v19.2c0,1.8,1.4,3.2,3.2,3.2s3.2-1.4,3.2-3.2v-19.2
			C179.5,489.5,178,488,176.3,488z"/>
		<path class="st4" d="M133.2,425.1c-1.8,0-3.2,1.4-3.2,3.2v19.2c0,1.8,1.4,3.2,3.2,3.2s3.2-1.4,3.2-3.2v-19.2
			C136.4,426.5,135,425.1,133.2,425.1z"/>
		<path class="st4" d="M147.6,425.1c-1.8,0-3.2,1.4-3.2,3.2v19.2c0,1.8,1.4,3.2,3.2,3.2s3.2-1.4,3.2-3.2v-19.2
			C150.8,426.5,149.3,425.1,147.6,425.1z"/>
		<path class="st4" d="M161.9,425.1c-1.8,0-3.2,1.4-3.2,3.2v19.2c0,1.8,1.4,3.2,3.2,3.2s3.2-1.4,3.2-3.2v-19.2
			C165.1,426.5,163.7,425.1,161.9,425.1z"/>
		<path class="st4" d="M176.3,425.1c-1.8,0-3.2,1.4-3.2,3.2v19.2c0,1.8,1.4,3.2,3.2,3.2s3.2-1.4,3.2-3.2v-19.2
			C179.5,426.5,178,425.1,176.3,425.1z"/>
		<path class="st4" d="M133.2,551c-1.8,0-3.2,1.4-3.2,3.2v19.2c0,1.8,1.4,3.2,3.2,3.2s3.2-1.4,3.2-3.2v-19.2
			C136.4,552.4,135,551,133.2,551z"/>
		<path class="st4" d="M147.6,551c-1.8,0-3.2,1.4-3.2,3.2v19.2c0,1.8,1.4,3.2,3.2,3.2s3.2-1.4,3.2-3.2v-19.2
			C150.8,552.4,149.3,551,147.6,551z"/>
		<path class="st4" d="M161.9,551c-1.8,0-3.2,1.4-3.2,3.2v19.2c0,1.8,1.4,3.2,3.2,3.2s3.2-1.4,3.2-3.2v-19.2
			C165.1,552.4,163.7,551,161.9,551z"/>
		<path class="st4" d="M176.3,551c-1.8,0-3.2,1.4-3.2,3.2v19.2c0,1.8,1.4,3.2,3.2,3.2s3.2-1.4,3.2-3.2v-19.2
			C179.5,552.4,178,551,176.3,551z"/>
	</g>
</g>
</svg>
